<svg xmlns="http://www.w3.org/2000/svg" width="742" height="150" viewBox="0 0 742 150"><g><g><g><path fill="#f7d37e" d="M179.892 66.114h-54.416l27.14-58.061zm-24.74-64.62h-4.799l-45.943 97.56h5.509l13.198-28.047h59.133l13.061 28.048h5.785l-45.859-97.38z"/></g><g><path fill="#f7d37e" d="M272.916 46.397c-3.07.858-6.417 1.294-9.951 1.294h-35.57V7.075h34.47c8.41 0 15.006 1.827 19.603 5.432 4.573 3.588 6.891 8.408 6.891 14.326v.275c0 3.415-.659 6.443-1.959 9a18.252 18.252 0 0 1-5.407 6.42c-2.295 1.711-5.012 3.013-8.077 3.869zm-45.52 6.187h37.355c4.167 0 8.072.459 11.61 1.365 3.522.904 6.586 2.253 9.109 4.008 2.511 1.752 4.492 3.913 5.886 6.426 1.387 2.51 2.09 5.466 2.09 8.783v.275c0 6.46-2.569 11.578-7.636 15.212-5.1 3.655-12.37 5.509-21.608 5.509h-36.806zm62.22 39.742c6.154-4.487 9.273-10.887 9.273-19.022v-.275c0-3.327-.611-6.354-1.816-8.999a22.034 22.034 0 0 0-5.02-6.973c-2.123-1.983-4.625-3.667-7.436-5.006a34.964 34.964 0 0 0-7.656-2.59 25.534 25.534 0 0 0 5.762-2.63 23.484 23.484 0 0 0 5.713-4.947c1.618-1.945 2.908-4.196 3.834-6.691.926-2.502 1.395-5.36 1.395-8.498v-.275c0-6.29-2.113-11.592-6.279-15.759-2.682-2.68-6.24-4.787-10.572-6.262-4.324-1.472-9.308-2.217-14.811-2.217H222.09v96.873h41.974c10.834 0 19.431-2.264 25.553-6.729z"/></g><g><path fill="#f7d37e" d="M390.537 66.114H336.12l27.14-58.061zm21.204 32.94L365.883 1.677l-.086-.181H361l-45.944 97.56h5.508l13.2-28.048h59.132l13.062 28.048z"/></g><g><path fill="#f7d37e" d="M496.362 46.588c-2.619 2.03-5.868 3.632-9.659 4.76-3.796 1.131-8.206 1.705-13.109 1.705h-33.506V7.075h34.47c9.413 0 16.818 2.036 22.01 6.052 5.165 3.998 7.784 9.627 7.784 16.731v.275c0 3.329-.683 6.428-2.03 9.212-1.347 2.783-3.352 5.22-5.96 7.243zm-56.274 11.358h33.626l31.348 41.109h6.707l-32.074-41.71c4.187-.394 8.113-1.261 11.677-2.582 3.73-1.38 6.999-3.25 9.718-5.554a23.906 23.906 0 0 0 6.339-8.359c1.478-3.236 2.228-6.935 2.228-10.992v-.275c0-3.6-.633-6.971-1.88-10.02-1.246-3.045-3.002-5.76-5.224-8.077-2.956-2.953-6.813-5.268-11.463-6.881-4.645-1.608-10.115-2.423-16.258-2.423h-40.05v96.873h5.306z"/></g><g><path fill="#f7d37e" d="M94 66.825a44.759 44.759 0 0 1-6.595 11.654 45.409 45.409 0 0 1-9.796 9.185c-7.346 5.116-16.342 7.998-25.351 8.115-.564.043-1.128.012-1.66-.024l-3.402-.18c-.343-.012-.68-.07-1.038-.13-.206-.035-.41-.07-.605-.094-.426-.07-.853-.134-1.28-.198-.691-.104-1.383-.209-2.048-.328l-3.305-.853c-.738-.152-1.463-.427-2.167-.693a31.576 31.576 0 0 0-1.006-.369l-.419-.15c-.9-.324-1.83-.66-2.689-1.118a82.775 82.775 0 0 0-1.139-.548 48.445 48.445 0 0 1-1.885-.928l-2.89-1.752c-3.948-2.634-7.338-5.618-10.077-8.865a49.466 49.466 0 0 1-7.032-11.405 49.911 49.911 0 0 1-3.3-12.96c-.358-4.91-.152-9.287.625-13.375.953-4.451 2.48-8.69 4.533-12.594a49.795 49.795 0 0 1 8.095-10.7c3.052-2.984 6.712-5.636 10.867-7.876l3.05-1.465c.647-.28 1.329-.524 1.988-.76.393-.14.786-.281 1.165-.426.196-.067.39-.14.584-.214.34-.13.662-.252.995-.339L42.3 6.381l4.191-.65c.703-.089 1.43-.12 2.134-.152.414-.018.829-.036 1.237-.065l1.675-.092.495.008c.4.005.798.01 1.202.032 1.005.033 2.075.114 3.366.253A45.6 45.6 0 0 1 69.6 9.153l.211.079c2.878 1.312 5.316 2.992 7.258 5 1.085 1.04 1.997 2.275 2.828 3.434.758 1.211 1.545 2.513 2.104 3.943 1.119 2.565 1.702 5.482 1.732 8.67a22.783 22.783 0 0 1-1.701 8.666l-.122.297 5.16 2.013.113-.295a28.13 28.13 0 0 0 1.88-10.743c-.12-3.862-.889-7.44-2.285-10.626-.712-1.763-1.717-3.412-2.615-4.805-1.014-1.41-2.14-2.892-3.484-4.17-2.43-2.465-5.45-4.502-8.976-6.052l-.26-.095A50.596 50.596 0 0 0 57.128.821C55.07.624 52.365.422 49.668.628c-.426.026-.853.043-1.281.06-.8.032-1.626.065-2.448.163l-4.622.69-4.508 1.133c-.403.105-.793.249-1.17.388-.202.074-.406.149-.62.22-.396.148-.797.29-1.198.431-.759.267-1.543.544-2.311.87L28.135 6.18c-4.62 2.446-8.7 5.366-12.13 8.68a54.867 54.867 0 0 0-9.093 11.856c-2.338 4.354-4.075 9.078-5.166 14.048a53.812 53.812 0 0 0-.753 14.958 55.16 55.16 0 0 0 3.789 14.49 54.617 54.617 0 0 0 7.925 12.678c3.089 3.616 6.878 6.91 11.275 9.795l3.21 1.914c.728.381 1.482.734 2.211 1.076.384.179.768.358 1.14.538 1 .519 2.066.896 3.097 1.262l.396.14c.353.119.704.248 1.055.377.807.297 1.642.605 2.5.781l3.628.908c.82.145 1.645.264 2.47.384.402.059.806.116 1.217.18.212.025.422.06.633.093.4.064.814.13 1.232.143l1.86.09c.43.01.86.034 1.29.06.576.032 1.163.066 1.748.066.227 0 .454-.005.68-.017 9.96-.074 19.95-3.216 28.13-8.849 8.264-5.657 14.843-13.843 18.524-23.049l.118-.294-5.007-1.96z"/></g><g><path fill="#f7d37e" d="M544.376 52.722h68.152v-4.894h-68.152V7.075h74.2V2.182H539.07v96.873h80.195V94.16h-74.89z"/></g><g><path fill="#f7d37e" d="M643.823 2.182v4.893h45.96v91.98h5.305V7.075h46.098V2.182z"/></g><g><path fill="#f7d37e" d="M238.577 137.809c0 4.907-3.591 8.334-8.734 8.334h-4.836v-16.732h4.836c5.143 0 8.734 3.454 8.734 8.397zm-8.734-11.138h-7.753v22.212h7.753c6.805 0 11.744-4.684 11.744-11.137 0-6.417-4.94-11.075-11.744-11.075z"/></g><g><path fill="#f7d37e" d="M258.342 139.038h11.817v-2.709h-11.817v-6.949h13.209v-2.71h-16.126v22.213h16.28v-2.709h-13.363z"/></g><g><path fill="#f7d37e" d="M295.98 136.365c-4.811-1.034-5.69-2.167-5.69-4.023 0-1.945 1.797-3.304 4.372-3.304 2.237 0 4.175.733 6.098 2.307l.191.157 1.708-2.275-.177-.143c-2.369-1.91-4.689-2.724-7.759-2.724-4.26 0-7.35 2.607-7.35 6.2 0 4.073 2.98 5.558 7.456 6.536 4.6.974 5.443 2.087 5.443 3.93 0 2.088-1.844 3.49-4.59 3.49-2.803 0-4.907-.873-7.265-3.013l-.181-.165-1.822 2.164.17.153c2.694 2.414 5.556 3.539 9.005 3.539 4.564 0 7.63-2.58 7.63-6.416 0-3.385-2.165-5.302-7.239-6.413z"/></g><g><path fill="#f7d37e" d="M351.913 133.926c0 2.781-2.238 4.578-5.703 4.578h-5.115v-9.093h5.239c3.546 0 5.579 1.646 5.579 4.515zm-5.393-7.255h-8.342v22.212h2.917v-7.67h5.023c4.351 0 8.743-2.282 8.743-7.38 0-4.35-3.274-7.162-8.341-7.162z"/></g><g><path fill="#f7d37e" d="M371.833 139.038h11.817v-2.709h-11.817v-6.949h13.208v-2.71h-16.125v22.213h16.28v-2.709h-13.363z"/></g><g><path fill="#f7d37e" d="M378.13 119.164l-3.29 5.04h2.45l3.814-3.66z"/></g><g><path fill="#f7d37e" d="M416.671 143.445c-1.922 1.843-3.819 3.07-6.826 3.07-4.645 0-8.147-3.769-8.147-8.769 0-4.964 3.502-8.708 8.147-8.708 2.51 0 4.497.872 6.641 2.916l.174.166 1.993-2.149-.17-.16c-1.928-1.825-4.304-3.513-8.607-3.513-6.379 0-11.188 4.948-11.188 11.51 0 6.526 4.77 11.448 11.094 11.448 4.412 0 6.94-1.966 8.83-3.89l.166-.169-1.94-1.911z"/></g><g><path fill="#f7d37e" d="M447.988 136.33h-12.024v-9.66h-2.917v22.213h2.917V139.1h12.024v9.783h2.916v-22.212h-2.916z"/></g><g><path fill="#f7d37e" d="M474.723 124.203l3.815-3.66-2.974-1.38-3.29 5.04z"/></g><g><path fill="#f7d37e" d="M469.267 139.038h11.816v-2.709h-11.816v-6.949h13.208v-2.71H466.35v22.213h16.28v-2.709h-13.363z"/></g><g><path fill="#f7d37e" d="M506.113 136.365c-4.81-1.034-5.69-2.167-5.69-4.023 0-1.945 1.798-3.304 4.372-3.304 2.238 0 4.177.733 6.099 2.307l.19.157 1.709-2.275-.178-.143c-2.368-1.91-4.688-2.724-7.759-2.724-4.26 0-7.35 2.607-7.35 6.2 0 4.073 2.98 5.558 7.456 6.536 4.6.974 5.443 2.087 5.443 3.93 0 2.088-1.845 3.49-4.59 3.49-2.802 0-4.906-.873-7.265-3.013l-.181-.165-1.821 2.164.17.153c2.694 2.414 5.555 3.539 9.005 3.539 4.564 0 7.63-2.58 7.63-6.416 0-3.385-2.166-5.302-7.24-6.413z"/></g><g><path fill="#f7d37e" d="M546.64 145.35v-2.71h39.375v2.71z"/></g><g><path fill="#f7d37e" d="M546.64 132.914v-2.71h19.924v2.71z"/></g><g><path fill="#f7d37e" d="M147.304 145.35v-2.71h39.376v2.71z"/></g><g><path fill="#f7d37e" d="M166.755 132.914v-2.71h19.925v2.71z"/></g></g></g></svg>